<?xml version="1.0" encoding="iso-8859-1"?>
<!-- Uploaded to: SVG Repo, www.svgrepo.com, Generator: SVG Repo Mixer Tools -->
<svg height="800px" width="800px" version="1.1" id="Layer_1" xmlns="http://www.w3.org/2000/svg" xmlns:xlink="http://www.w3.org/1999/xlink" 
	 viewBox="0 0 390.206 390.206" xml:space="preserve">
<path style="fill:#FFFFFF;" d="M122.505,282.435c2.198-2.198,4.848-3.232,7.564-3.232h227.62c5.948,0,10.861-4.848,10.861-10.861
	V46.67c0-5.947-4.849-10.861-10.861-10.861H32.517c-5.947,0-10.861,4.848-10.861,10.861v221.673c0,5.947,4.848,10.861,10.861,10.861
	h22.756c5.947,0,10.861,4.848,10.861,10.861v48.808L122.505,282.435z"/>
<path style="fill:#FFC10D;" d="M43.378,57.53v11.895H87.79c5.947,0,10.861,4.848,10.861,10.861c0,5.947-4.848,10.861-10.861,10.861
	H43.378v21.657h11.895c5.947,0,10.861,4.848,10.861,10.861c0,5.947-4.848,10.861-10.861,10.861H43.378v123.022H87.79v29.285
	l29.285-29.285h229.818V57.53H43.378z"/>
<g>
	<path style="fill:#FFFFFF;" d="M108.412,168.593c0-9.244-7.564-17.325-17.325-17.325c-9.244,0-17.325,7.564-17.325,17.325
		c0,9.244,7.564,17.325,17.325,17.325C100.784,185.401,108.412,177.837,108.412,168.593z"/>
	<circle style="fill:#FFFFFF;" cx="195.103" cy="168.593" r="17.325"/>
	<circle style="fill:#FFFFFF;" cx="298.602" cy="168.593" r="17.325"/>
</g>
<g>
	<path style="fill:#194F82;" d="M357.689,14.152H32.517C14.61,14.152,0,28.763,0,46.67v221.673c0,17.907,14.61,32.517,32.517,32.517
		h11.895v64.517c-0.517,8.663,11.378,14.61,18.424,7.564l72.081-72.081h222.772c17.907,0,32.517-14.61,32.517-32.517V46.67
		C390.206,28.763,375.596,14.152,357.689,14.152z M368.549,268.342c0,5.947-4.849,10.861-10.861,10.861h-227.62
		c-2.715,0-5.43,1.099-7.564,3.232l-56.372,56.889v-48.808c0-5.947-4.848-10.861-10.861-10.861H32.517
		c-5.947,0-10.861-4.849-10.861-10.861V46.67c0-5.947,4.848-10.861,10.861-10.861h325.172c5.948,0,10.861,4.848,10.861,10.861
		V268.342z"/>
	<path style="fill:#194F82;" d="M91.604,129.611c-21.139,0-39.046,17.325-39.046,39.046s17.325,39.046,39.046,39.046
		c21.139,0,39.046-17.325,39.046-39.046S112.743,129.611,91.604,129.611z M91.604,185.401c-9.244,0-17.325-7.564-17.325-17.325
		c0-9.244,7.564-17.325,17.325-17.325c9.244,0,17.325,7.564,17.325,17.325C108.412,177.837,100.784,185.401,91.604,185.401z"/>
	<path style="fill:#194F82;" d="M195.103,129.611c-21.139,0-39.046,17.325-39.046,39.046s17.325,39.046,39.046,39.046
		c21.139,0,39.046-17.325,39.046-39.046S216.242,129.611,195.103,129.611z M195.103,185.401c-9.244,0-17.325-7.564-17.325-17.325
		c0-9.244,7.564-17.325,17.325-17.325c9.244,0,17.325,7.564,17.325,17.325C212.428,177.837,204.347,185.401,195.103,185.401z"/>
	<path style="fill:#194F82;" d="M298.602,129.611c-21.139,0-39.046,17.325-39.046,39.046s17.325,39.046,39.046,39.046
		s39.046-17.325,39.046-39.046S320.323,129.611,298.602,129.611z M298.602,185.401c-9.244,0-17.325-7.564-17.325-17.325
		c0-9.244,7.564-17.325,17.325-17.325s17.39,7.564,17.39,17.325C315.992,177.837,307.846,185.401,298.602,185.401z"/>
</g>
</svg>