<?xml version="1.0" encoding="iso-8859-1"?>
<!-- Uploaded to: SVG Repo, www.svgrepo.com, Generator: SVG Repo Mixer Tools -->
<svg height="800px" width="800px" version="1.1" id="Layer_1" xmlns="http://www.w3.org/2000/svg" xmlns:xlink="http://www.w3.org/1999/xlink" 
	 viewBox="0 0 503.467 503.467" xml:space="preserve">
<g transform="translate(1 1)">
	<path style="fill:#ECF4F7;" d="M238.787,3.267c4.267,0,7.68,0,11.947,0c4.267,0,7.68,0,11.947,0h0.853
		c4.267,0,7.68,0.853,11.947,0.853h0.853c3.413,0,6.827,0.853,9.387,0.853c1.707,0,3.413,0.853,5.12,0.853
		c2.56,0,5.12,0.853,8.533,1.707c2.56,0,4.267,0.853,6.827,1.707c0.853,0,0.853,0,1.707,0c2.56,0.853,5.12,0.853,6.827,1.707
		l-34.987,132.267c-9.387-2.56-18.773-3.413-29.013-3.413s-19.627,0.853-29.013,3.413L186.733,10.947
		c2.56-0.853,5.12-0.853,6.827-1.707c0.853,0,0.853,0,1.707,0c2.56-0.853,4.267-0.853,6.827-1.707s5.973-0.853,8.533-1.707
		c1.707,0,3.413-0.853,5.12-0.853c3.413-0.853,6.827-0.853,9.387-0.853h0.853c3.413,0,7.68-0.853,11.947-0.853H238.787z
		 M262.68,498.2c-4.267,0-7.68,0-11.947,0c-4.267,0-7.68,0-11.947,0h-0.853c-4.267,0-7.68-0.853-11.947-0.853h-0.853
		c-3.413,0-6.827-0.853-9.387-0.853c-1.707,0-3.413-0.853-5.12-0.853c-2.56,0-5.12-0.853-8.533-1.707
		c-2.56,0-4.267-0.853-6.827-1.707c-0.853,0-0.853,0-1.707,0c-2.56-0.853-5.12-0.853-6.827-1.707l34.987-132.267
		c9.387,2.56,18.773,3.413,29.013,3.413c10.24,0,19.627-0.853,29.013-3.413l34.987,132.267c-2.56,0.853-5.12,0.853-6.827,1.707
		c-0.853,0-0.853,0-1.707,0c-2.56,0.853-4.267,0.853-6.827,1.707s-5.973,0.853-8.533,1.707c-1.707,0-3.413,0.853-5.12,0.853
		c-3.413,0.853-6.827,0.853-9.387,0.853h-0.853c-3.413,0-7.68,0.853-11.947,0.853H262.68z M11.8,186.733l131.413,34.987
		c-2.56,9.387-3.413,18.773-3.413,29.013c0,10.24,0.853,19.627,3.413,29.013L11.8,314.733c-0.853-2.56-0.853-5.12-1.707-7.68
		c0-0.853,0-0.853,0-1.707c-0.853-2.56-0.853-4.267-1.707-6.827c-0.853-2.56-0.853-5.12-1.707-8.533c0-1.707-0.853-3.413-0.853-5.12
		c-0.853-3.413-0.853-6.827-0.853-9.387v-0.853c0-4.267-0.853-7.68-0.853-11.947v-0.853c0-4.267,0-7.68,0-11.947s0-7.68,0-11.947
		v-0.853c0-4.267,0.853-7.68,0.853-11.947c0,0,0,0,0-0.853c0-3.413,0.853-6.827,0.853-9.387c0-1.707,0.853-3.413,0.853-5.12
		c0.853-2.56,0.853-5.12,1.707-8.533c0-2.56,0.853-4.267,1.707-6.827c0-0.853,0-0.853,0-1.707
		C10.093,191.853,10.947,189.293,11.8,186.733z M498.2,238.787c0,4.267,0,7.68,0,11.947c0,4.267,0,7.68,0,11.947v0.853
		c0,4.267-0.853,7.68-0.853,11.947c0,0,0,0,0,0.853c0,3.413-0.853,6.827-0.853,9.387c0,1.707-0.853,3.413-0.853,5.12
		c0,2.56-0.853,5.12-1.707,8.533c-0.853,2.56-0.853,4.267-1.707,6.827c0,0.853,0,0.853,0,1.707c-0.853,2.56-0.853,5.12-1.707,7.68
		L359.107,280.6c2.56-9.387,3.413-18.773,3.413-29.013c0-10.24-0.853-19.627-3.413-29.013l131.413-34.987
		c0.853,2.56,1.707,5.12,1.707,7.68c0,0.853,0,0.853,0,1.707c0.853,2.56,0.853,4.267,1.707,6.827c0.853,2.56,0.853,5.12,1.707,8.533
		c0,1.707,0.853,3.413,0.853,5.12c0.853,3.413,0.853,6.827,0.853,9.387v0.853c0,4.267,0.853,7.68,0.853,11.947V238.787z"/>
	<path style="fill:#FF7474;" d="M489.667,314.733c0.853-2.56,1.707-5.12,1.707-7.68c-21.333,91.307-93.013,162.987-184.32,184.32
		c2.56-0.853,5.12-0.853,6.827-1.707l-34.987-131.413c38.4-10.24,68.267-40.107,78.507-78.507L489.667,314.733z M491.373,193.56
		c-0.853-2.56-0.853-5.12-1.707-7.68l-131.413,34.987c-10.24-38.4-40.107-68.267-78.507-78.507l34.987-131.413
		c-2.56-0.853-5.12-0.853-6.827-1.707C398.36,31.427,470.04,103.107,491.373,193.56z M186.733,11.8l34.987,131.413
		c-38.4,10.24-68.267,40.107-78.507,78.507L11.8,186.733c-0.853,2.56-0.853,5.12-1.707,7.68
		c21.333-91.307,93.013-162.987,184.32-184.32C191.853,10.093,189.293,10.947,186.733,11.8z M221.72,358.253L185.88,490.52
		c2.56,0.853,5.12,0.853,7.68,1.707c-91.307-21.333-162.987-93.013-184.32-184.32c0.853,2.56,0.853,5.12,1.707,7.68L142.36,280.6
		C153.453,317.293,184.173,348.013,221.72,358.253z"/>
</g>
<path style="fill:#51565F;" d="M430.933,503.467h-51.2c-2.56,0-4.267-1.707-4.267-4.267c0-2.56,1.707-4.267,4.267-4.267h51.2
	c34.987,0,64-29.013,64-64v-51.2c0-2.56,1.707-4.267,4.267-4.267c2.56,0,4.267,1.707,4.267,4.267v51.2
	C503.467,471.04,471.04,503.467,430.933,503.467z M251.733,503.467c-22.187,0-43.52-2.56-64.853-8.533
	c-2.56-0.853-3.413-2.56-3.413-5.12l34.133-128c-36.693-11.093-64.853-40.107-75.947-75.947L13.653,320
	c-2.56,0.853-4.267-0.853-5.12-3.413C2.56,295.253,0,273.92,0,251.733s2.56-43.52,8.533-64.853c0.853-2.56,2.56-3.413,5.12-3.413
	l128,34.133c11.093-36.693,40.107-64.853,75.947-75.947l-34.133-128c-0.853-2.56,0.853-4.267,3.413-5.12
	C208.213,2.56,229.547,0,251.733,0s43.52,2.56,64.853,8.533c2.56,0.853,3.413,2.56,3.413,5.12l-34.133,128
	c36.693,11.093,64.853,40.107,75.947,75.947l128-34.133c2.56-0.853,4.267,0.853,5.12,3.413c5.973,21.333,8.533,42.667,8.533,64.853
	s-2.56,43.52-8.533,64.853c-0.853,2.56-2.56,3.413-5.12,3.413l-128-34.133c-11.093,36.693-40.107,64.853-75.947,75.947l34.133,128
	c0.853,2.56-0.853,4.267-3.413,5.12C295.253,500.907,273.92,503.467,251.733,503.467z M192.853,488.107
	c19.627,5.12,38.4,6.827,58.88,6.827s39.253-2.56,58.88-6.827l-33.28-123.733c-16.213,3.413-34.987,3.413-51.2,0L192.853,488.107z
	 M224.427,354.987c17.067,4.267,37.547,4.267,54.613,0l0,0l0,0c36.693-10.24,64.853-38.4,75.093-75.093l0,0l0,0
	c2.56-8.533,3.413-17.92,3.413-27.307s-0.853-18.773-3.413-27.307l0,0l0,0c-10.24-36.693-38.4-64.853-75.093-75.093l0,0l0,0
	c-17.067-4.267-37.547-4.267-54.613,0l0,0l0,0c-36.693,10.24-64.853,38.4-75.093,75.093l0,0l0,0
	c-2.56,8.533-3.413,17.92-3.413,27.307s0.853,18.773,3.413,27.307l0,0l0,0C158.72,315.733,187.733,344.747,224.427,354.987
	C223.573,354.987,224.427,354.987,224.427,354.987L224.427,354.987z M364.373,277.333l123.733,33.28
	c5.12-19.627,6.827-38.4,6.827-58.88s-2.56-39.253-6.827-58.88l-123.733,33.28c1.707,8.533,2.56,17.067,2.56,25.6
	S366.08,268.8,364.373,277.333z M15.36,192.853c-5.12,19.627-6.827,38.4-6.827,58.88s2.56,39.253,6.827,58.88l123.733-33.28
	c-1.707-8.533-2.56-17.067-2.56-25.6s0.853-17.067,2.56-25.6L15.36,192.853z M192.853,15.36l33.28,123.733
	c16.213-3.413,34.987-3.413,51.2,0l33.28-123.733c-19.627-5.12-38.4-6.827-58.88-6.827S212.48,11.093,192.853,15.36z
	 M123.733,503.467h-51.2C32.427,503.467,0,471.04,0,430.933v-51.2c0-2.56,1.707-4.267,4.267-4.267s4.267,1.707,4.267,4.267v51.2
	c0,34.987,29.013,64,64,64h51.2c2.56,0,4.267,1.707,4.267,4.267C128,501.76,126.293,503.467,123.733,503.467z M345.6,484.693
	c-1.707,0-3.413-0.853-4.267-2.56c-0.853-2.56,0-4.267,2.56-5.973c59.733-24.747,108.373-72.533,133.12-132.267
	c0.853-2.56,3.413-3.413,5.973-2.56c2.56,0.853,3.413,3.413,2.56,5.973c-25.6,61.44-75.947,111.787-137.387,137.387
	C346.453,484.693,346.453,484.693,345.6,484.693z M157.867,484.693c-0.853,0-0.853,0-1.707,0
	c-61.44-25.6-111.787-75.947-137.387-137.387c-0.853-2.56,0-4.267,2.56-5.973c2.56-0.853,4.267,0,5.973,2.56
	c24.747,59.733,72.533,108.373,132.267,133.12c2.56,0.853,3.413,3.413,2.56,5.973C161.28,483.84,159.573,484.693,157.867,484.693z
	 M480.427,162.133c-1.707,0-3.413-0.853-4.267-2.56C451.413,99.84,403.627,51.2,343.893,26.453c-2.56-0.853-3.413-3.413-2.56-5.973
	c0.853-2.56,3.413-3.413,5.973-2.56c61.44,25.6,111.787,75.093,137.387,137.387c0.853,2.56,0,4.267-2.56,5.973
	C482.133,162.133,481.28,162.133,480.427,162.133z M23.04,162.133c-0.853,0-0.853,0-1.707,0c-2.56-0.853-3.413-3.413-2.56-5.973
	C44.373,94.72,94.72,44.373,156.16,18.773c2.56-0.853,4.267,0,5.973,2.56c0.853,2.56,0,4.267-2.56,5.973
	C99.84,52.053,51.2,99.84,26.453,159.573C26.453,161.28,24.747,162.133,23.04,162.133z M499.2,128c-2.56,0-4.267-1.707-4.267-4.267
	v-51.2c0-34.987-29.013-64-64-64h-51.2c-2.56,0-4.267-1.707-4.267-4.267S377.173,0,379.733,0h51.2
	c40.107,0,72.533,32.427,72.533,72.533v51.2C503.467,126.293,501.76,128,499.2,128z M4.267,128C1.707,128,0,126.293,0,123.733v-51.2
	C0,32.427,32.427,0,72.533,0h51.2C126.293,0,128,1.707,128,4.267s-1.707,4.267-4.267,4.267h-51.2c-34.987,0-64,29.013-64,64v51.2
	C8.533,126.293,6.827,128,4.267,128z"/>
</svg>