<?xml version="1.0" encoding="iso-8859-1"?>
<!-- Uploaded to: SVG Repo, www.svgrepo.com, Generator: SVG Repo Mixer Tools -->
<svg height="800px" width="800px" version="1.1" id="Layer_1" xmlns="http://www.w3.org/2000/svg" xmlns:xlink="http://www.w3.org/1999/xlink" 
	 viewBox="0 0 390.271 390.271" xml:space="preserve">
<path style="fill:#FFC10D;" d="M224.2,50.489c0,15.192-12.477,28.186-28.186,28.186s-28.186-12.477-28.186-28.186
	s12.477-28.186,28.186-28.186S224.2,34.715,224.2,50.489z"/>
<path style="fill:#194F82;" d="M358.083,241.778l-29.285-29.285c-4.331-4.331-10.861-4.331-15.192,0l-29.285,29.285
	c-4.331,4.331-4.331,10.861,0,15.192c4.331,4.331,10.861,4.331,15.192,0l8.663-8.663c-9.244,60.186-55.273,89.406-101.883,93.22
	V155.604h19.523c5.947,0,10.861-4.848,10.861-10.861s-4.848-10.861-10.861-10.861h-19.523V98.651
	c22.238-4.848,39.046-24.954,39.046-48.808C245.339,22.174,223.101,0,195.497,0S145.59,22.303,145.59,49.907
	c0,23.855,16.808,43.895,39.046,48.808v35.232h-19.523c-5.947,0-10.861,4.848-10.861,10.861s4.848,10.861,10.861,10.861h19.523
	v185.923c-46.61-3.814-92.703-33.616-101.883-93.22l8.663,8.663c4.331,4.331,11.895,3.814,15.192,0
	c4.331-4.331,4.331-10.861,0-15.192l-29.285-29.285c-4.331-4.331-10.861-4.331-15.192,0l-29.285,29.285
	c-4.331,4.331-4.331,10.861,0,15.192c4.331,4.331,10.861,4.331,15.192,0l11.378-11.442c8.663,76.412,67.749,113.842,124.121,117.592
	v16.226c0,5.947,4.848,10.861,10.861,10.861s10.861-4.848,10.861-10.861v-16.291c56.372-4.331,115.459-41.762,124.121-117.592
	l11.378,11.378c4.331,4.331,11.895,3.814,15.192,0C361.832,253.156,361.832,246.109,358.083,241.778z M196.014,78.675
	c-15.709,0-28.186-12.477-28.186-28.186s12.477-28.186,28.186-28.186S224.2,34.78,224.2,50.489
	C224.2,65.616,211.723,78.675,196.014,78.675z"/>
</svg>