<?xml version="1.0" encoding="iso-8859-1"?>
<!-- Uploaded to: SVG Repo, www.svgrepo.com, Generator: SVG Repo Mixer Tools -->
<svg height="800px" width="800px" version="1.1" id="Layer_1" xmlns="http://www.w3.org/2000/svg" xmlns:xlink="http://www.w3.org/1999/xlink" 
	 viewBox="0 0 502.614 502.614" xml:space="preserve">
<g transform="translate(1 1)">
	<circle style="fill:#80D6FA;" cx="250.733" cy="249.454" r="247.467"/>
	<path style="fill:#ECF4F7;" d="M394.093,141.934c-4.267,3.413-9.387,5.12-15.36,5.12c-14.507,0-25.6-11.093-25.6-25.6
		c0-5.973,1.707-11.093,5.12-15.36c4.267-5.973,11.947-10.24,20.48-10.24c14.507,0,25.6,11.093,25.6,25.6
		C404.333,129.987,400.067,136.813,394.093,141.934z M406.893,441.454c-6.827-4.267-11.093-12.8-11.093-21.333
		c0-14.507,11.093-25.6,25.6-25.6s25.6,11.093,25.6,25.6s-11.093,25.6-25.6,25.6C416.28,445.72,411.16,444.013,406.893,441.454z
		 M250.733,334.787c14.507,0,25.6,11.093,25.6,25.6s-11.093,25.6-25.6,25.6c-14.507,0-25.6-11.093-25.6-25.6
		S236.227,334.787,250.733,334.787z"/>
</g>
<path style="fill:#51565F;" d="M251.733,502.187C112.64,502.187,0,389.547,0,250.454c0-47.787,13.653-93.867,38.4-133.973
	c0.853-1.707,4.267-2.56,5.973-1.707c1.707,0.853,2.56,4.267,1.707,5.973c-24.747,38.4-37.547,83.627-37.547,129.707
	c0,133.973,109.227,243.2,243.2,243.2c53.76,0,106.667-17.92,149.333-51.2c-5.12-5.12-8.533-12.8-8.533-21.333
	c0-16.213,13.653-29.867,29.867-29.867c8.533,0,15.36,3.413,21.333,8.533c33.28-42.667,51.2-95.573,51.2-149.333
	c0-133.973-109.227-243.2-243.2-243.2c-65.707,0-121.173,22.187-168.96,68.267l41.813,41.813
	c34.133-32.427,79.36-50.347,126.293-50.347c38.4,0,75.947,11.947,106.667,34.133c5.12-5.12,12.8-8.533,21.333-8.533
	c16.213,0,29.867,13.653,29.867,29.867c0,8.533-3.413,15.36-8.533,21.333c22.187,31.573,34.133,68.267,34.133,106.667
	c0,101.547-81.92,183.467-183.467,183.467c-101.547,0-183.467-81.92-183.467-183.467c0-35.84,10.24-70.827,29.867-100.693
	c1.707-1.707,4.267-2.56,5.973-0.853c1.707,1.707,2.56,4.267,0.853,5.973c-18.773,29.013-29.013,61.44-29.013,96.427
	c0,96.427,78.507,174.933,174.933,174.933S424.96,347.734,424.96,251.307c0-36.693-11.093-71.68-32.427-101.547
	c-4.267,2.56-9.387,3.413-14.507,3.413c-16.213,0-29.867-13.653-29.867-29.867c0-5.12,1.707-10.24,3.413-14.507
	c-29.867-21.333-64.853-32.427-101.547-32.427c-45.227,0-87.893,17.067-120.32,48.64l42.667,42.667
	c21.333-19.627,48.64-30.72,78.507-30.72c63.147,0,115.2,52.053,115.2,115.2c0,52.053-34.987,98.133-85.333,110.933
	c0,16.213-13.653,29.867-29.867,29.867s-29.867-12.8-29.867-29.867c-50.347-13.653-85.333-58.88-85.333-110.933
	c0-17.067,4.267-34.133,11.947-50.347c0.853-1.707,3.413-3.413,5.973-1.707c1.707,0.853,3.413,3.413,1.707,5.973
	c-6.827,14.507-11.093,30.72-11.093,46.933c0,48.64,31.573,89.6,77.653,102.4c3.413-12.8,15.36-21.333,29.013-21.333
	c13.653,0,24.747,9.387,29.013,21.333c46.08-12.8,77.653-54.613,77.653-102.4c0-58.88-47.787-106.667-106.667-106.667
	c-27.307,0-52.907,10.24-72.533,28.16l41.813,41.813c7.68-6.827,17.92-10.24,30.72-10.24c25.6,0,46.933,21.333,46.933,46.933
	s-21.333,46.933-46.933,46.933s-46.933-21.333-46.933-46.933c0-2.56,1.707-4.267,4.267-4.267c2.56,0,4.267,1.707,4.267,4.267
	c0,21.333,17.067,38.4,38.4,38.4s38.4-17.067,38.4-38.4s-17.067-38.4-38.4-38.4c-9.387,0-17.92,2.56-23.893,7.68l27.307,27.307
	c1.707,1.707,1.707,4.267,0,5.973c-1.707,1.707-4.267,1.707-5.973,0l-30.72-30.72l0,0l-96.427-96.427l0,0l0,0L73.387,80.64
	c-1.707-1.707-1.707-4.267,0-5.973c49.493-49.493,107.52-74.24,177.493-74.24c139.093,0,251.733,112.64,251.733,251.733
	c0,57.173-19.627,112.64-54.613,157.013c2.56,4.267,3.413,8.533,3.413,13.653c0,16.213-13.653,29.867-29.867,29.867
	c-5.12,0-10.24-0.853-13.653-3.413C364.373,482.56,308.907,502.187,251.733,502.187z M412.16,439.894
	c2.56,1.707,5.973,2.56,10.24,2.56c11.947,0,21.333-9.387,21.333-21.333s-9.387-21.333-21.333-21.333s-21.333,9.387-21.333,21.333
	c0,6.827,3.413,12.8,7.68,16.213c0.853,0,2.56,0.853,3.413,1.707C412.16,439.04,412.16,439.894,412.16,439.894z M251.733,340.054
	c-11.947,0-21.333,9.387-21.333,21.333s9.387,21.333,21.333,21.333c11.947,0,21.333-9.387,21.333-21.333
	S263.68,340.054,251.733,340.054z M362.667,110.507c-2.56,3.413-4.267,7.68-4.267,11.947c0,11.947,9.387,21.333,21.333,21.333
	c4.267,0,7.68-0.853,11.093-3.413c0-0.853,0.853-0.853,1.707-1.707c0.853-0.853,1.707-0.853,1.707-0.853
	c4.267-4.267,6.827-9.387,6.827-15.36c0-11.947-9.387-21.333-21.333-21.333c-6.827,0-12.8,3.413-17.067,7.68
	C362.667,109.654,362.667,109.654,362.667,110.507C362.667,109.654,362.667,109.654,362.667,110.507z"/>
</svg>